<svg xmlns="http://www.w3.org/2000/svg" xmlns:xlink="http://www.w3.org/1999/xlink" xmlns:lucid="lucid" width="2180" height="623"><g transform="translate(400 -537)" lucid:page-tab-id="0_0"><path d="M-107.2 920h303.56M-107.14 920h-2.05M178.86 930.18l17.2-10.18-17.2-10.18M37.98 757.98l160.6 160.6M50 748.8L28.8 770M198.55 918.55L200 920" stroke="#3a414a" stroke-width="4" fill="none"/><path d="M60 726a6 6 0 0 1 6-6h138.5a6 6 0 0 1 6 6v28a6 6 0 0 1-6 6H66a6 6 0 0 1-6-6z" stroke="#000" stroke-opacity="0" stroke-width="4" fill="#fff" fill-opacity="0"/><use xlink:href="#a" transform="matrix(1,0,0,1,65,725) translate(0.75555555555556 23.808333333333334)"/><path d="M200 920h376.36M202 905v30M558.86 930.18l17.2-10.18-17.2-10.18M400 665.3V918" stroke="#3a414a" stroke-width="4" fill="none"/><path d="M402 665.35h-4v-2.05h4z" stroke="#3a414a" stroke-width=".05" fill="#3a414a"/><path d="M400 917.95V920M-39 681l74.4 74.4M-38.97 681.03l-1.45-1.45M15.83 750.23l19.37 4.97-4.97-19.37" stroke="#3a414a" stroke-width="4" fill="none"/><path d="M500 946a6 6 0 0 1 6-6h108a6 6 0 0 1 6 6v36.24a6 6 0 0 1-6 6H506a6 6 0 0 1-6-6z" stroke="#000" stroke-opacity="0" stroke-width="4" fill="#fff" fill-opacity="0"/><use xlink:href="#b" transform="matrix(1,0,0,1,505,945) translate(3.255555555555553 29.245833333333334)"/><path d="M580 920h318M582 905v30M896 935v-30M775.52 658.88l-.9 259.12" stroke="#3a414a" stroke-width="4" fill="none"/><path d="M777.52 658.94h-4v-2.06h4z" stroke="#3a414a" stroke-width=".05" fill="#3a414a"/><path d="M774.62 917.95V920M660 802v116M660 802.05V800M660 917.95V920" stroke="#3a414a" stroke-width="4" fill="none"/><path d="M324.75 606a6 6 0 0 1 6-6h138.5a6 6 0 0 1 6 6v51.33a6 6 0 0 1-6 6h-138.5a6 6 0 0 1-6-6z" stroke="#000" stroke-opacity="0" stroke-width="4" fill="#fff" fill-opacity="0"/><use xlink:href="#c" transform="matrix(1,0,0,1,329.7491400796147,605) translate(38.766666666666666 25.308333333333334)"/><use xlink:href="#d" transform="matrix(1,0,0,1,329.7491400796147,605) translate(24.96666666666666 51.975)"/><path d="M600 606a6 6 0 0 1 6-6h108a6 6 0 0 1 6 6v44.92a6 6 0 0 1-6 6H606a6 6 0 0 1-6-6z" stroke="#000" stroke-opacity="0" stroke-width="4" fill="#fff" fill-opacity="0"/><use xlink:href="#c" transform="matrix(1,0,0,1,605,605) translate(23.266666666666666 21.933333333333334)"/><use xlink:href="#e" transform="matrix(1,0,0,1,605,605) translate(19.144444444444446 48.6)"/><path d="M720 606a6 6 0 0 1 6-6h108a6 6 0 0 1 6 6v44.92a6 6 0 0 1-6 6H726a6 6 0 0 1-6-6z" stroke="#000" stroke-opacity="0" stroke-width="4" fill="#fff" fill-opacity="0"/><use xlink:href="#f" transform="matrix(1,0,0,1,725,605) translate(10.522222222222219 30.745833333333334)"/><use xlink:href="#g" transform="matrix(1,0,0,1,725,605) translate(78.27777777777777 30.745833333333334)"/><path d="M900 1000V840l120 80z" stroke="#3a414a" stroke-width="4" fill="#fff3d9"/><path d="M-360 894.33a6 6 0 0 1 6-6h208a6 6 0 0 1 6 6v51.34a6 6 0 0 1-6 6h-208a6 6 0 0 1-6-6z" stroke="#000" stroke-opacity="0" fill="#fff" fill-opacity="0"/><use xlink:href="#f" transform="matrix(1,0,0,1,-355,893.3333333333333) translate(9.655555555555551 35.43333333333334)"/><use xlink:href="#h" transform="matrix(1,0,0,1,-355,893.3333333333333) translate(77.41111111111111 35.43333333333334)"/><path d="M1025.6 920h150.76" stroke="#3a414a" stroke-width="4" fill="none"/><path d="M1025.66 922h-5.05l3-2-3-2h5.06z" stroke="#3a414a" stroke-width=".05" fill="#3a414a"/><path d="M1158.86 930.18l17.2-10.18-17.2-10.18M1180 920h139.23M1182 905v30M1301.72 930.18l17.2-10.18-17.2-10.18M1322.86 920h166.66M1324.86 905v30M1472 930.18l17.22-10.18-17.2-10.18" stroke="#3a414a" stroke-width="4" fill="none"/><path d="M1100 854.08a6 6 0 0 1 6-6h108a6 6 0 0 1 6 6v28.25a6 6 0 0 1-6 6h-108a6 6 0 0 1-6-6z" stroke="#000" stroke-opacity="0" stroke-width="4" fill="#fff" fill-opacity="0"/><use xlink:href="#i" transform="matrix(1,0,0,1,1105,853.0844524300429) translate(-2.577777777777783 24.1)"/><path d="M1260 854.08a6 6 0 0 1 6-6h108a6 6 0 0 1 6 6v28.25a6 6 0 0 1-6 6h-108a6 6 0 0 1-6-6z" stroke="#000" stroke-opacity="0" stroke-width="4" fill="#fff" fill-opacity="0"/><use xlink:href="#j" transform="matrix(1,0,0,1,1265,853.0844524300429) translate(9.055555555555557 23.870833333333334)"/><path d="M1493.15 920h66.46M1495.15 905v30M1559.56 920h2.05" stroke="#3a414a" stroke-width="4" fill="none"/><path d="M1420 854.08a6 6 0 0 1 6-6h108a6 6 0 0 1 6 6v28.25a6 6 0 0 1-6 6h-108a6 6 0 0 1-6-6z" stroke="#000" stroke-opacity="0" stroke-width="4" fill="#fff" fill-opacity="0"/><use xlink:href="#k" transform="matrix(1,0,0,1,1425,853.0844524300429) translate(3.4555555555555557 23.870833333333334)"/><path d="M1080.26 1019.74l97.17-97.17M1071.07 1007.72l21.2 21.2M1172.25 942.15l4.97-19.37-19.37 4.97" stroke="#3a414a" stroke-width="4" fill="none"/><path d="M100 951a6 6 0 0 1 6-6h178.5a6 6 0 0 1 6 6v43a6 6 0 0 1-6 6H106a6 6 0 0 1-6-6z" stroke="#000" stroke-opacity="0" fill="#fff" fill-opacity="0"/><use xlink:href="#l" transform="matrix(1,0,0,1,105,950) translate(6.933333333333323 30.370833333333334)"/><path d="M1109.5 1026a6 6 0 0 1 6-6H1254a6 6 0 0 1 6 6v28a6 6 0 0 1-6 6h-138.5a6 6 0 0 1-6-6z" stroke="#000" stroke-opacity="0" stroke-width="4" fill="#fff" fill-opacity="0"/><use xlink:href="#m" transform="matrix(1,0,0,1,1114.4982801592294,1025) translate(18.84444444444445 23.808333333333334)"/><path d="M1610.06 1030.32l-108.9-108.9M1590.48 1025.13l19.37 4.98-4.98-19.36M1501.2 921.45l-1.46-1.45" stroke="#3a414a" stroke-width="4" fill="none"/><path d="M1558.15 924.24a6 6 0 0 1 8.48 0l97.94 97.94a6 6 0 0 1 0 8.48l-13.9 13.9a6 6 0 0 1-8.5 0l-97.93-97.93a6 6 0 0 1 0-8.48z" stroke="#000" stroke-opacity="0" stroke-width="4" fill="#fff" fill-opacity="0"/><use xlink:href="#n" transform="matrix(0.7071067811865476,0.7071067811865475,-0.7071067811865475,0.7071067811865476,1562.391714737574,927.0710678118656) translate(25.08888888888888 21.933333333333334)"/><path d="M660 662v138M660 662.05V660M645 798h30" stroke="#3a414a" stroke-width="4" fill="none"/><path d="M520 766a6 6 0 0 1 6-6h108a6 6 0 0 1 6 6v36.24a6 6 0 0 1-6 6H526a6 6 0 0 1-6-6z" stroke="#000" stroke-opacity="0" stroke-width="4" fill="#fff" fill-opacity="0"/><use xlink:href="#o" transform="matrix(1,0,0,1,525,765) translate(4.855555555555547 29.245833333333334)"/><path d="M981.4 1118.33l96.93-96.92M981.45 1118.3l-1.45 1.44M1078.3 1021.45l1.44-1.45" stroke="#3a414a" stroke-width="4" fill="none"/><path d="M875.43 766a6 6 0 0 1 6-6h108a6 6 0 0 1 6 6v44.92a6 6 0 0 1-6 6h-108a6 6 0 0 1-6-6z" stroke="#000" stroke-opacity="0" stroke-width="4" fill="#fff" fill-opacity="0"/><g><use xlink:href="#p" transform="matrix(1,0,0,1,880.4330708661416,765) translate(-4.811111111111117 32.1)"/></g><defs><path fill="#3a414a" d="M340-1114c9 364 1 744 4 1114H174v-1433c45 2 105-6 138 7 9 3 18 13 29 26l830 1080c-4-32-5-64-5-98v-1015h170V0c-46-3-102 7-136-8-10-5-21-14-31-27" id="q"/><path fill="#3a414a" d="M1353 0h-150c-36 0-55-21-66-46l-134-346H360L226-46c-9 23-33 46-66 46H10l573-1433h197zM414-532h535l-225-583c-15-36-29-81-43-135-13 48-26 95-42 136" id="r"/><path fill="#3a414a" d="M1365-1009c68 170 68 416 0 586C1264-171 1053 0 710 0H174v-1433h536c343 5 555 172 655 424zM710-157c338-11 507-216 507-559s-169-560-507-560H369v1119h341" id="s"/><path fill="#3a414a" d="M1344-139C1208-39 1036 20 799 16c-345-5-555-181-657-435-70-174-66-421 0-596 113-299 413-484 839-421 148 22 259 85 350 168l-55 88c-38 58-99 7-135-18-118-82-379-113-543-44-193 82-310 256-310 526 0 276 118 454 313 536 175 73 436 36 567-45v-316H946c-65 1-35-91-42-148h440v550" id="t"/><path fill="#3a414a" d="M1336 0h-195v-652H369V0H174v-1433h195v639h772v-639h195V0" id="u"/><path fill="#3a414a" d="M1150-1433v163H687V0H493v-1270H28v-163h1122" id="v"/><g id="a"><use transform="matrix(0.011111111111111112,0,0,0.011111111111111112,0,0)" xlink:href="#q"/><use transform="matrix(0.011111111111111112,0,0,0.011111111111111112,16.8,0)" xlink:href="#r"/><use transform="matrix(0.011111111111111112,0,0,0.011111111111111112,31.91111111111111,0)" xlink:href="#q"/><use transform="matrix(0.011111111111111112,0,0,0.011111111111111112,48.711111111111116,0)" xlink:href="#s"/><use transform="matrix(0.011111111111111112,0,0,0.011111111111111112,64.97777777777777,0)" xlink:href="#r"/><use transform="matrix(0.011111111111111112,0,0,0.011111111111111112,79.62222222222222,0)" xlink:href="#t"/><use transform="matrix(0.011111111111111112,0,0,0.011111111111111112,95.93333333333334,0)" xlink:href="#u"/><use transform="matrix(0.011111111111111112,0,0,0.011111111111111112,112.73333333333333,0)" xlink:href="#r"/><use transform="matrix(0.011111111111111112,0,0,0.011111111111111112,126.37777777777778,0)" xlink:href="#v"/></g><path fill="#3a414a" d="M513-145c178-4 292-88 292-262 0-193-194-213-343-263-182-61-347-142-342-385 4-188 111-303 254-361 117-48 292-41 408 5 66 26 124 62 173 110-22 37-36 86-66 115-51 25-83-28-123-48-53-26-114-56-200-54-157 4-266 71-266 223 0 186 200 204 344 258 175 65 343 135 343 372 0 289-185 446-480 451-198 4-349-81-449-187 26-36 42-83 76-111 60-25 93 39 140 65 62 34 135 75 239 72" id="w"/><path fill="#3a414a" d="M1124-1036c0 240-152 355-353 406 24 14 45 35 64 61L1253 0c-92-9-205 21-250-41L631-553c-24-32-41-45-97-45H387V0H194v-1433h405c307 3 525 101 525 397zm-189 14c0-188-133-258-336-258H387v541h203c205-3 345-85 345-283" id="x"/><path fill="#3a414a" d="M404 0H210v-1433h194V0" id="y"/><g id="b"><use transform="matrix(0.011111111111111112,0,0,0.011111111111111112,0,0)" xlink:href="#w"/><use transform="matrix(0.011111111111111112,0,0,0.011111111111111112,11.777777777777779,0)" xlink:href="#r"/><use transform="matrix(0.011111111111111112,0,0,0.011111111111111112,26.888888888888896,0)" xlink:href="#x"/><use transform="matrix(0.011111111111111112,0,0,0.011111111111111112,41.2,0)" xlink:href="#r"/><use transform="matrix(0.011111111111111112,0,0,0.011111111111111112,56.31111111111111,0)" xlink:href="#s"/><use transform="matrix(0.011111111111111112,0,0,0.011111111111111112,73.04444444444445,0)" xlink:href="#y"/><use transform="matrix(0.011111111111111112,0,0,0.011111111111111112,79.86666666666667,0)" xlink:href="#u"/><use transform="matrix(0.011111111111111112,0,0,0.011111111111111112,96.66666666666667,0)" xlink:href="#y"/></g><path fill="#3a414a" d="M8-1433h155c36 0 55 21 66 46L634-376c20 47 34 103 48 157 12-55 25-110 44-157l403-1011c9-22 33-46 66-46h156L767 0H592" id="z"/><path fill="#3a414a" d="M1057-1433v158H369v476h557v152H369v489h688V0H174v-1433h883" id="A"/><g id="c"><use transform="matrix(0.011111111111111112,0,0,0.011111111111111112,0,0)" xlink:href="#x"/><use transform="matrix(0.011111111111111112,0,0,0.011111111111111112,14.311111111111112,0)" xlink:href="#y"/><use transform="matrix(0.011111111111111112,0,0,0.011111111111111112,21.133333333333333,0)" xlink:href="#z"/><use transform="matrix(0.011111111111111112,0,0,0.011111111111111112,36.24444444444445,0)" xlink:href="#A"/><use transform="matrix(0.011111111111111112,0,0,0.011111111111111112,49.15555555555556,0)" xlink:href="#x"/></g><path fill="#3a414a" d="M1454-1012c68 174 68 418 0 592-101 256-310 435-656 435S243-165 143-420c-68-174-68-418 0-592 101-256 309-437 655-437s556 181 656 437zM798-153c339 0 508-219 508-563 0-268-108-446-298-526-121-52-298-52-419 0-190 80-299 258-299 526s109 444 299 524c63 26 132 39 209 39" id="B"/><g id="d"><use transform="matrix(0.011111111111111112,0,0,0.011111111111111112,0,0)" xlink:href="#u"/><use transform="matrix(0.011111111111111112,0,0,0.011111111111111112,16.8,0)" xlink:href="#r"/><use transform="matrix(0.011111111111111112,0,0,0.011111111111111112,31.91111111111111,0)" xlink:href="#w"/><use transform="matrix(0.011111111111111112,0,0,0.011111111111111112,43.68888888888889,0)" xlink:href="#s"/><use transform="matrix(0.011111111111111112,0,0,0.011111111111111112,60.422222222222224,0)" xlink:href="#A"/><use transform="matrix(0.011111111111111112,0,0,0.011111111111111112,73.33333333333334,0)" xlink:href="#B"/></g><path fill="#3a414a" d="M338-1150c4 31 6 65 6 97V0H174v-1433c59 2 132-6 183 5 10 2 18 13 27 28l495 882c19 31 31 68 45 104 14-38 27-71 46-105l485-881c25-58 137-23 210-33V0h-170c2-381-5-772 4-1147l-491 896c-27 62-134 61-168 0" id="C"/><g id="e"><use transform="matrix(0.011111111111111112,0,0,0.011111111111111112,0,0)" xlink:href="#C"/><use transform="matrix(0.011111111111111112,0,0,0.011111111111111112,20.444444444444446,0)" xlink:href="#B"/><use transform="matrix(0.011111111111111112,0,0,0.011111111111111112,38.17777777777778,0)" xlink:href="#q"/><use transform="matrix(0.011111111111111112,0,0,0.011111111111111112,54.97777777777777,0)" xlink:href="#s"/></g><g id="f"><use transform="matrix(0.011111111111111112,0,0,0.011111111111111112,0,0)" xlink:href="#x"/><use transform="matrix(0.011111111111111112,0,0,0.011111111111111112,14.311111111111112,0)" xlink:href="#y"/><use transform="matrix(0.011111111111111112,0,0,0.011111111111111112,21.133333333333333,0)" xlink:href="#z"/><use transform="matrix(0.011111111111111112,0,0,0.011111111111111112,36.24444444444445,0)" xlink:href="#A"/><use transform="matrix(0.011111111111111112,0,0,0.011111111111111112,49.15555555555556,0)" xlink:href="#x"/></g><path fill="#3a414a" d="M867-737c186 37 317 126 317 329C1184-123 974 0 681 0H174v-1433h457c293 3 505 90 505 374 0 185-121 273-269 322zm126 324c0-168-128-240-316-240H368v499h310c190-2 315-75 315-259zm-50-623c0-184-115-243-312-244H368v489h256c186-3 319-66 319-245" id="D"/><g id="g"><use transform="matrix(0.011111111111111112,0,0,0.011111111111111112,0,0)" xlink:href="#y"/><use transform="matrix(0.011111111111111112,0,0,0.011111111111111112,6.822222222222223,0)" xlink:href="#D"/></g><g id="h"><use transform="matrix(0.011111111111111112,0,0,0.011111111111111112,0,0)" xlink:href="#C"/><use transform="matrix(0.011111111111111112,0,0,0.011111111111111112,20.444444444444446,0)" xlink:href="#r"/><use transform="matrix(0.011111111111111112,0,0,0.011111111111111112,35.55555555555556,0)" xlink:href="#u"/><use transform="matrix(0.011111111111111112,0,0,0.011111111111111112,52.355555555555554,0)" xlink:href="#r"/><use transform="matrix(0.011111111111111112,0,0,0.011111111111111112,67.46666666666667,0)" xlink:href="#q"/><use transform="matrix(0.011111111111111112,0,0,0.011111111111111112,84.26666666666667,0)" xlink:href="#r"/><use transform="matrix(0.011111111111111112,0,0,0.011111111111111112,99.37777777777778,0)" xlink:href="#s"/><use transform="matrix(0.011111111111111112,0,0,0.011111111111111112,116.11111111111111,0)" xlink:href="#y"/></g><path fill="#3a414a" d="M387-805c45-1 103 5 133-9 15-6 30-18 43-33l477-540c28-29 44-46 95-46h165L754-816c-26 27-46 49-79 65 43 14 65 39 93 72L1338 0c-92-7-205 17-256-41L587-610c-25-30-54-46-112-46h-88V0H194v-1433h193v628" id="E"/><path fill="#3a414a" d="M368-163h620V0H174v-1433h194v1270" id="F"/><g id="i"><use transform="matrix(0.011111111111111112,0,0,0.011111111111111112,0,0)" xlink:href="#E"/><use transform="matrix(0.011111111111111112,0,0,0.011111111111111112,15.133333333333335,0)" xlink:href="#u"/><use transform="matrix(0.011111111111111112,0,0,0.011111111111111112,31.93333333333334,0)" xlink:href="#r"/><use transform="matrix(0.011111111111111112,0,0,0.011111111111111112,47.04444444444446,0)" xlink:href="#y"/><use transform="matrix(0.011111111111111112,0,0,0.011111111111111112,53.86666666666668,0)" xlink:href="#x"/><use transform="matrix(0.011111111111111112,0,0,0.011111111111111112,68.17777777777779,0)" xlink:href="#C"/><use transform="matrix(0.011111111111111112,0,0,0.011111111111111112,88.62222222222223,0)" xlink:href="#r"/><use transform="matrix(0.011111111111111112,0,0,0.011111111111111112,103.73333333333336,0)" xlink:href="#F"/></g><path fill="#3a414a" d="M353-563c7 250 130 409 378 409s377-159 377-408v-871h193v871c-5 275-133 450-332 535-136 58-340 59-476 0-200-85-333-259-333-535v-871h193v870" id="G"/><g id="j"><use transform="matrix(0.011111111111111112,0,0,0.011111111111111112,0,0)" xlink:href="#D"/><use transform="matrix(0.011111111111111112,0,0,0.011111111111111112,14.377777777777778,0)" xlink:href="#r"/><use transform="matrix(0.011111111111111112,0,0,0.011111111111111112,29.48888888888889,0)" xlink:href="#x"/><use transform="matrix(0.011111111111111112,0,0,0.011111111111111112,43.800000000000004,0)" xlink:href="#C"/><use transform="matrix(0.011111111111111112,0,0,0.011111111111111112,64.24444444444445,0)" xlink:href="#G"/><use transform="matrix(0.011111111111111112,0,0,0.011111111111111112,80.46666666666667,0)" xlink:href="#F"/></g><g id="k"><use transform="matrix(0.011111111111111112,0,0,0.011111111111111112,0,0)" xlink:href="#C"/><use transform="matrix(0.011111111111111112,0,0,0.011111111111111112,20.444444444444446,0)" xlink:href="#G"/><use transform="matrix(0.011111111111111112,0,0,0.011111111111111112,36.66666666666667,0)" xlink:href="#q"/><use transform="matrix(0.011111111111111112,0,0,0.011111111111111112,53.46666666666667,0)" xlink:href="#s"/><use transform="matrix(0.011111111111111112,0,0,0.011111111111111112,69.73333333333333,0)" xlink:href="#r"/><use transform="matrix(0.011111111111111112,0,0,0.011111111111111112,84.84444444444445,0)" xlink:href="#F"/><use transform="matrix(0.011111111111111112,0,0,0.011111111111111112,96.26666666666667,0)" xlink:href="#y"/></g><path fill="#3a414a" d="M726-570V0H533v-570L8-1433h170c37 0 52 22 67 45l328 557c25 42 41 81 58 127 17-46 32-85 57-127l327-557c12-20 31-45 65-45h172" id="H"/><g id="l"><use transform="matrix(0.011111111111111112,0,0,0.011111111111111112,0,0)" xlink:href="#w"/><use transform="matrix(0.011111111111111112,0,0,0.011111111111111112,11.777777777777779,0)" xlink:href="#A"/><use transform="matrix(0.011111111111111112,0,0,0.011111111111111112,24.68888888888889,0)" xlink:href="#B"/><use transform="matrix(0.011111111111111112,0,0,0.011111111111111112,42.422222222222224,0)" xlink:href="#x"/><use transform="matrix(0.011111111111111112,0,0,0.011111111111111112,56.733333333333334,0)" xlink:href="#y"/><use transform="matrix(0.011111111111111112,0,0,0.011111111111111112,63.55555555555556,0)" xlink:href="#q"/><use transform="matrix(0.011111111111111112,0,0,0.011111111111111112,80.35555555555555,0)" xlink:href="#r"/><use transform="matrix(0.011111111111111112,0,0,0.011111111111111112,95.46666666666667,0)" xlink:href="#x"/><use transform="matrix(0.011111111111111112,0,0,0.011111111111111112,109.77777777777779,0)" xlink:href="#r"/><use transform="matrix(0.011111111111111112,0,0,0.011111111111111112,123.06666666666668,0)" xlink:href="#H"/><use transform="matrix(0.011111111111111112,0,0,0.011111111111111112,135.22222222222223,0)" xlink:href="#r"/><use transform="matrix(0.011111111111111112,0,0,0.011111111111111112,150.33333333333334,0)" xlink:href="#q"/></g><g id="m"><use transform="matrix(0.011111111111111112,0,0,0.011111111111111112,0,0)" xlink:href="#D"/><use transform="matrix(0.011111111111111112,0,0,0.011111111111111112,14.377777777777778,0)" xlink:href="#A"/><use transform="matrix(0.011111111111111112,0,0,0.011111111111111112,27.28888888888889,0)" xlink:href="#F"/><use transform="matrix(0.011111111111111112,0,0,0.011111111111111112,37.82222222222222,0)" xlink:href="#t"/><use transform="matrix(0.011111111111111112,0,0,0.011111111111111112,54.13333333333333,0)" xlink:href="#r"/><use transform="matrix(0.011111111111111112,0,0,0.011111111111111112,68.77777777777777,0)" xlink:href="#B"/><use transform="matrix(0.011111111111111112,0,0,0.011111111111111112,86.5111111111111,0)" xlink:href="#q"/></g><path fill="#3a414a" d="M243-146c204-7 276-136 277-345v-942h193v938C709-181 572 16 262 16c-65 0-132-9-202-28 7-48 1-109 24-142 47-28 93 10 159 8" id="I"/><g id="n"><use transform="matrix(0.011111111111111112,0,0,0.011111111111111112,0,0)" xlink:href="#E"/><use transform="matrix(0.011111111111111112,0,0,0.011111111111111112,15.133333333333335,0)" xlink:href="#r"/><use transform="matrix(0.011111111111111112,0,0,0.011111111111111112,28.77777777777778,0)" xlink:href="#v"/><use transform="matrix(0.011111111111111112,0,0,0.011111111111111112,39.66666666666667,0)" xlink:href="#I"/><use transform="matrix(0.011111111111111112,0,0,0.011111111111111112,49.53333333333334,0)" xlink:href="#B"/><use transform="matrix(0.011111111111111112,0,0,0.011111111111111112,67.26666666666668,0)" xlink:href="#s"/><use transform="matrix(0.011111111111111112,0,0,0.011111111111111112,84.00000000000001,0)" xlink:href="#y"/></g><path fill="#3a414a" d="M617-1433c323 3 534 130 534 444 0 310-216 446-534 453H387V0H194v-1433h423zm340 444c0-197-128-291-340-291H387v590h230c207-4 340-97 340-299" id="J"/><g id="o"><use transform="matrix(0.011111111111111112,0,0,0.011111111111111112,0,0)" xlink:href="#v"/><use transform="matrix(0.011111111111111112,0,0,0.011111111111111112,11.644444444444446,0)" xlink:href="#r"/><use transform="matrix(0.011111111111111112,0,0,0.011111111111111112,26.75555555555556,0)" xlink:href="#x"/><use transform="matrix(0.011111111111111112,0,0,0.011111111111111112,41.06666666666667,0)" xlink:href="#r"/><use transform="matrix(0.011111111111111112,0,0,0.011111111111111112,56.17777777777778,0)" xlink:href="#J"/><use transform="matrix(0.011111111111111112,0,0,0.011111111111111112,69.75555555555556,0)" xlink:href="#G"/><use transform="matrix(0.011111111111111112,0,0,0.011111111111111112,85.97777777777779,0)" xlink:href="#x"/></g><g id="p"><use transform="matrix(0.011111111111111112,0,0,0.011111111111111112,0,0)" xlink:href="#x"/><use transform="matrix(0.011111111111111112,0,0,0.011111111111111112,14.311111111111112,0)" xlink:href="#A"/><use transform="matrix(0.011111111111111112,0,0,0.011111111111111112,27.222222222222225,0)" xlink:href="#w"/><use transform="matrix(0.011111111111111112,0,0,0.011111111111111112,39,0)" xlink:href="#A"/><use transform="matrix(0.011111111111111112,0,0,0.011111111111111112,51.91111111111111,0)" xlink:href="#x"/><use transform="matrix(0.011111111111111112,0,0,0.011111111111111112,66.22222222222223,0)" xlink:href="#z"/><use transform="matrix(0.011111111111111112,0,0,0.011111111111111112,80.75555555555556,0)" xlink:href="#B"/><use transform="matrix(0.011111111111111112,0,0,0.011111111111111112,98.4888888888889,0)" xlink:href="#y"/><use transform="matrix(0.011111111111111112,0,0,0.011111111111111112,105.31111111111112,0)" xlink:href="#x"/></g></defs></g></svg>